<svg width="32" height="31" viewBox="0 0 32 31" fill="none" xmlns="http://www.w3.org/2000/svg">
<path d="M28.2734 9.87178C27.9411 9.19348 27.4021 8.6264 26.7268 8.24449L18.1001 3.15922C17.4674 2.78543 16.7378 2.5874 15.9934 2.5874C15.2491 2.5874 14.5195 2.78543 13.8868 3.15922L5.2601 8.24449C4.60615 8.64161 4.08733 9.21138 3.76677 9.88449C3.43377 10.5576 3.32221 11.311 3.44677 12.0457L5.68677 24.7589C5.83041 25.6454 6.30366 26.4532 7.0201 27.0346C7.73086 27.6022 8.62635 27.9168 9.55344 27.9245H22.3801C23.3255 27.9286 24.2419 27.6134 24.9668 27.0346C25.687 26.4561 26.1611 25.647 26.3001 24.7589L28.5401 12.0457C28.6759 11.3118 28.5832 10.556 28.2734 9.87178ZM20.4601 22.2036H11.5401C11.1865 22.2036 10.8473 22.0696 10.5973 21.8312C10.3472 21.5928 10.2068 21.2694 10.2068 20.9322C10.2068 20.5951 10.3472 20.2717 10.5973 20.0333C10.8473 19.7949 11.1865 19.6609 11.5401 19.6609H20.4601C20.8137 19.6609 21.1529 19.7949 21.4029 20.0333C21.653 20.2717 21.7934 20.5951 21.7934 20.9322C21.7934 21.2694 21.653 21.5928 21.4029 21.8312C21.1529 22.0696 20.8137 22.2036 20.4601 22.2036Z" fill="white"/>
</svg>
