<svg width="32" height="33" viewBox="0 0 32 33" fill="none" xmlns="http://www.w3.org/2000/svg">
<path d="M13.3333 11.1783V8.51164C13.3333 7.80439 13.6142 7.12612 14.1143 6.62602C14.6144 6.12592 15.2927 5.84497 15.9999 5.84497H25.3333C26.0405 5.84497 26.7188 6.12592 27.2189 6.62602C27.719 7.12612 27.9999 7.80439 27.9999 8.51164V24.5116C27.9999 25.2189 27.719 25.8972 27.2189 26.3973C26.7188 26.8974 26.0405 27.1783 25.3333 27.1783H15.9999C15.2927 27.1783 14.6144 26.8974 14.1143 26.3973C13.6142 25.8972 13.3333 25.2189 13.3333 24.5116V21.845" stroke="white" stroke-width="2" stroke-linecap="round" stroke-linejoin="round"/>
<path d="M20 16.5116H4M4 16.5116L8 12.5116M4 16.5116L8 20.5116" stroke="white" stroke-width="2" stroke-linecap="round" stroke-linejoin="round"/>
</svg>
