<svg width="32" height="33" viewBox="0 0 32 33" fill="none" xmlns="http://www.w3.org/2000/svg">
<path d="M16.0001 29.8449C14.1556 29.8449 12.4223 29.4947 10.8001 28.7943C9.17786 28.0938 7.76675 27.1441 6.56675 25.945C5.36675 24.7458 4.41697 23.3347 3.71742 21.7116C3.01786 20.0885 2.66764 18.3552 2.66675 16.5116C2.66586 14.6681 3.01608 12.9347 3.71742 11.3116C4.41875 9.68851 5.36853 8.27739 6.56675 7.07828C7.76497 5.87917 9.17608 4.92939 10.8001 4.22895C12.4241 3.52851 14.1574 3.17828 16.0001 3.17828C17.8427 3.17828 19.5761 3.52851 21.2001 4.22895C22.8241 4.92939 24.2352 5.87917 25.4334 7.07828C26.6316 8.27739 27.5819 9.68851 28.2841 11.3116C28.9863 12.9347 29.3361 14.6681 29.3334 16.5116C29.3308 18.3552 28.9805 20.0885 28.2828 21.7116C27.585 23.3347 26.6352 24.7458 25.4334 25.945C24.2316 27.1441 22.8205 28.0943 21.2001 28.7956C19.5796 29.4969 17.8463 29.8467 16.0001 29.8449ZM9.46675 18.4449L11.8667 17.2449L9.20008 11.9116L6.80008 13.1116L9.46675 18.4449ZM12.6667 24.5116H15.3334V14.8783L12.5334 9.24495L10.1334 10.4449L12.6667 15.5116V24.5116ZM16.6667 24.5116H19.3334V15.4783L21.8667 10.4449L19.4668 9.24495L16.6667 14.8449V24.5116ZM22.5334 18.4449L25.2001 13.1116L22.8001 11.9116L20.1334 17.2449L22.5334 18.4449Z" fill="white"/>
</svg>
