<svg width="32" height="33" viewBox="0 0 32 33" fill="none" xmlns="http://www.w3.org/2000/svg">
<path d="M20 17.845V22.765L24.2533 25.2183L25.2533 23.485L22 21.605V17.845H20ZM12 29.845L14.4933 28.1916C15.3641 29.1365 16.4218 29.8899 17.5993 30.404C18.7769 30.9182 20.0485 31.1819 21.3333 31.1783C26.4933 31.1783 30.6667 27.005 30.6667 21.845C30.6667 19.2983 29.6533 16.9916 28 15.3116V4.51163H4V29.845L8 27.1783L12 29.845ZM21.3333 28.5116C17.6533 28.5116 14.6667 25.525 14.6667 21.845C14.6667 18.165 17.6533 15.1783 21.3333 15.1783C25.0133 15.1783 28 18.165 28 21.845C28 25.525 25.0133 28.5116 21.3333 28.5116Z" fill="white"/>
</svg>
